<?xml version="1.0" encoding="utf-8"?><!-- Uploaded to: SVG Repo, www.svgrepo.com, Generator: SVG Repo Mixer Tools -->
<svg width="800px" height="800px" viewBox="0 0 24 24" fill="#0463FA" xmlns="http://www.w3.org/2000/svg">
<path opacity="0.15" d="M4.3314 12.0474L12 20L19.6686 12.0474C20.5211 11.1633 21 9.96429 21 8.71405C21 6.11055 18.9648 4 16.4543 4C15.2487 4 14.0925 4.49666 13.24 5.38071L12 6.66667L10.76 5.38071C9.90749 4.49666 8.75128 4 7.54569 4C5.03517 4 3 6.11055 3 8.71405C3 9.96429 3.47892 11.1633 4.3314 12.0474Z" fill="#0463FA"/>
<path d="M4.76786 12.5L12 20L19.2321 12.5M4.76786 12.5L4.3314 12.0474C3.47892 11.1633 3 9.96429 3 8.71405C3 6.11055 5.03517 4 7.54569 4C8.75128 4 9.90749 4.49666 10.76 5.38071L12 6.66667L13.24 5.38071C14.0925 4.49666 15.2487 4 16.4543 4C18.9648 4 21 6.11055 21 8.71405C21 9.96429 20.5211 11.1633 19.6686 12.0474L19.2321 12.5M4.76786 12.5H7.99997L8.99997 10.5L11 14.5L14 8L16 12.5H19.2321" stroke="#fff" stroke-width="0.5" stroke-linecap="round" stroke-linejoin="round"/>
</svg>