<svg fill="#0463FA" viewBox="0 0 512 512" xmlns="http://www.w3.org/2000/svg">
    <g id="SVGRepo_bgCarrier" stroke-width="0"></g>
    <g id="SVGRepo_tracerCarrier" stroke-linecap="round" stroke-linejoin="round"></g>
    <g id="SVGRepo_iconCarrier">
        <g id="Test_tube">
            <path
                d="M426.7187,109.4386h-140a13.125,13.125,0,1,0,0,26.25h8.7479V411.3114a61.25,61.25,0,0,0,122.5,0V135.6886h8.7521C443.9709,135.397,443.9667,109.728,426.7187,109.4386Zm-35,301.875c-1.4718,46.259-68.5388,46.2419-70-.0011V341.1373c32.099,2.8658,37.8989-20.0314,70-17.15Z"></path>
            <path
                d="M225.4687,39.4386h-140a13.125,13.125,0,0,0,0,26.25h8.7479V411.3114a61.25,61.25,0,0,0,122.5,0V65.6886h8.7521C242.7209,65.397,242.7167,39.728,225.4687,39.4386Zm-35,371.875c-1.4676,46.25-68.5367,46.2494-70-.0011V244.8873c32.099,2.8658,37.8989-20.0314,70-17.15Z"></path>
        </g>
    </g>
</svg>